<svg id="be52d4a0-d7df-45d7-a4d1-9b9d295e8f0e" xmlns="http://www.w3.org/2000/svg" viewBox="0 0 825.2 661.2"><g id="loader"><circle cx="222.99" cy="181.03" r="47.9" style="fill:#ffa317;stroke:#3f3d56;stroke-miterlimit:10;stroke-width:4px"/><path d="M220.81,109.15l5-60.45a24.73,24.73,0,1,0-12.72.32Z" style="fill:#3f3d56"/><circle cx="218.69" cy="24.63" r="17.51" style="fill:#814bb8"/><path d="M160.2,146l-49.33-35.3a24.7,24.7,0,1,0-6.25,11.08Z" style="fill:#3f3d56"/><circle cx="86.58" cy="104.38" r="17.51" style="fill:#814bb8"/><path d="M160.67,216.91,105.05,241.1a24.72,24.72,0,1,0,6.29,11.05Z" style="fill:#3f3d56"/><circle cx="87.17" cy="258.71" r="17.51" style="fill:#814bb8"/><path d="M221.77,252.92,214,313.08a24.69,24.69,0,1,0,12.72.27Z" style="fill:#3f3d56"/><circle cx="219.89" cy="337.46" r="17.51" style="fill:#814bb8"/><path d="M284.05,219l47.6,37.59a24.71,24.71,0,1,0,6.77-10.77Z" style="fill:#3f3d56"/><circle cx="355.62" cy="264.03" r="17.51" style="fill:#814bb8"/><path d="M286.93,148.13l56.7-21.54a24.7,24.7,0,1,0-5.77-11.34Z" style="fill:#3f3d56"/><circle cx="362.32" cy="109.85" r="17.51" style="fill:#814bb8"/></g><circle cx="752.4" cy="64.8" r="14.8" style="fill:#814bb8;stroke:#3f3d56;stroke-miterlimit:10;stroke-width:2px"/><rect x="502.6" y="36.7" width="33.3" height="33.3" style="fill:#ffa317"/><rect x="509.3" y="30.1" width="33.3" height="33.3" style="fill:none;stroke:#3f3d56;stroke-miterlimit:10;stroke-width:2px"/><ellipse cx="633.4" cy="645.8" rx="191" ry="16" style="fill:#3f3d56"/><path d="M823.4,466.8c0,78.4-46.6,105.8-104.1,105.8S615.2,545.2,615.2,466.8,719.3,288.7,719.3,288.7,823.4,388.4,823.4,466.8Z" style="fill:#ffa317"/><polygon points="715.5 560.6 716.6 495 761 413.8 716.7 484.7 717.2 455.2 747.8 396.5 717.4 447.4 717.4 447.4 718.2 394.3 751 347.6 718.3 386 718.9 288.7 715.5 417.5 715.8 412.2 682.5 361.2 715.2 422.4 712.1 481.6 712.1 480.1 673.7 426.4 711.9 485.6 711.5 493 711.5 493.1 711.5 493.8 703.6 644.1 714.2 644.1 715.4 566.5 753.6 507.4 715.5 560.6" style="fill:#3f3d56"/><path d="M790.9,607.9c0,22.5-13.4,30.3-29.8,30.3H760c-.8,0-1.5-.1-2.3-.1-14.9-1.1-26.4-9.3-26.4-30.2,0-21.6,27.6-48.9,29.7-50.9h0l.1-.1S790.9,585.5,790.9,607.9Z" style="fill:#814bb8"/><path d="M760,634.8l10.9-15.2L760,636.5v1.8c-.8,0-1.5-.1-2.3-.1l1.2-22.5v-.2h0l.1-2.1-11-17,11,15.4v.5l.9-17-9.4-17.5,9.5,14.5.9-35.2v0l-.2,27.8,9.3-11-9.4,13.4-.2,15.2,8.7-14.6-8.8,16.8-.1,8.5,12.7-20.3L760.3,616Z" style="fill:#3f3d56"/><path d="M625.9,587.3s-3,19-8,22,26,10,26,10l5-30Z" style="fill:#fbbebe"/><path d="M662.9,370.3l11,13-5,45-4,89s8,77,0,79-44,1-43-4,2-9,4-16-2-32-2-32l5-28-18-121Z" style="fill:#2f2e41"/><path d="M626.9,606.3s-11-2-12,0-20,23-23,23-25,20-2,21,61-17,61-17-5.6-25.4-5.3-24.2S626.9,611.3,626.9,606.3Z" style="fill:#814bb8"/><path d="M614.9,560.3s28,31,29,34,16,0,16,0l6-20-5-7-28-23Z" style="fill:#fbbebe"/><path d="M654.9,583.3,640.4,597s18.5,28.4,18.5,31.4,1,28,11,24,11-44,11-44-1-41-7-44-19.2-2.1-19.2-2.1S662.9,582.3,654.9,583.3Z" style="fill:#814bb8"/><path d="M571.9,281.3s-5,16-6,20-7,15-7,32,2,37,0,39-34,114-20,126,60,52,63,57,4,17,10,15,29-22,30-26-13-11-13-11-28-41-35-40-6-5-5-8,3-5,0-5-1-8,0-12,24-58,24-58l61-27s-3-73-25-93l-5-12S587.9,274.3,571.9,281.3Z" style="fill:#2f2e41"/><path d="M596.9,123.3s5,35-7,37-22,1-22,2,30,32,30,32l28-2,25-27s-23-4-23-18-1-24-1-24Z" style="fill:#fbbebe"/><path d="M596.9,123.3s5,35-7,37-22,1-22,2,30,32,30,32l28-2,25-27s-23-4-23-18-1-24-1-24Z" style="opacity:0.10000000149011612;isolation:isolate"/><circle cx="612.4" cy="106.8" r="31" style="fill:#fbbebe"/><path d="M584.9,157.3s-39,5-42,18,20,94,23,101,2,12,2,12a39.75,39.75,0,0,1,32-7c19,4,46,2,46,2s9-37,11-41,10-26,10-32,12-31,12-31-6-18-28-17c0,0-9.6-4.3-12.3-1.1s-17.7,17.1-36.7,11.1S584.9,157.3,584.9,157.3Z" style="fill:#3f3d56"/><path d="M553.9,174.3h-11l-6,79s22,6,25,2S553.9,174.3,553.9,174.3Z" style="fill:#3f3d56"/><path d="M539.9,245.3l-3,8s-2,26,10,25,19-16,19-16-7-19-15-17S539.9,245.3,539.9,245.3Z" style="fill:#3f3d56"/><path d="M659.9,174.3l19,5s14,51,15,52,2,7,2,7,0,1,2,4,5,1,3,5-5,2-3,6,1,15,1,15-5-19-23-14l-12-54Z" style="fill:#3f3d56"/><path d="M577.1,81.3c-6.3,11.1-7.7,24.2-8.6,36.9-.4,5.5-.7,11,1,16.3,1.7,5.5,5.5,11.1,3.6,16.5-1.9,5.2-8.2,7.3-11.7,11.7-3,3.7-3.7,8.7-3.5,13.4s1.4,9.3,1.7,14.1a41.32,41.32,0,0,1-9,28.7c15.1-.6,31.2-7.3,37.5-20.9,1.9-4.1,2.8-8.6,4.5-12.7,1.9-4.7,4.9-9,6.7-13.7,2.8-7.2,2.9-15.1,3-22.7.1-4.6.1-9.3-1.5-13.6-3.5-9.5-14.4-15.7-15.5-25.7a4.68,4.68,0,0,1,.5-3.1,7.69,7.69,0,0,1,1.8-1.8c6.8-6,5.7-18.7,13.8-22.8,3.6-1.8,8-1.2,11.9,0,4.3,1.3,8.7,3.3,11.5,6.8,5.7,7.1,3.4,17.4,1.7,26.4a157.88,157.88,0,0,0-2.7,39.4,25.79,25.79,0,0,0,.9,6.2c1,3.3,3.3,6.1,5,9.1a30.17,30.17,0,0,1,3.1,20.4c-1.2,6.1-4.3,12.5-1.6,18.1a16.87,16.87,0,0,0,4.9,5.4c8.9,6.9,20.1,11.2,26.7,20.4,1.1-7.5-1-15-2.6-22.3s-2.6-15.4.7-22.2c1.4-3,3.6-5.6,4.8-8.7,2.7-7.1-.5-15-2.5-22.4a132.07,132.07,0,0,1-3-17.6l-2-16c-1.7-13.2-3.4-26.8-9.3-38.8-11-22.6-35.8-31.1-58-18.5A34.32,34.32,0,0,0,577.1,81.3Z" style="fill:#814bb8"/><path d="M549.9,250.3s-6,18,1,18,20-11,21-20,19-43,6-40-19,28-19,28Z" style="fill:#fbbebe"/><polygon points="650.9 174.3 617.9 281.3 662.9 291.3 695.9 187.3 650.9 174.3" style="fill:#ffa317"/><path d="M692.9,251.3l6.2,10.4s2.8,19.6-11.2,19.6-34-19-34-19-10-4-16-3-39,0-25-17,38,0,38,0l25,12,13-7Z" style="fill:#fbbebe"/><path d="M684.4,237.8l-10,16s23,3,25,8-9-26-9-26Z" style="fill:#3f3d56"/><rect x="111.4" y="528.7" width="55.7" height="55.7" style="fill:#ffa317"/><rect x="122.5" y="517.5" width="55.7" height="55.7" style="fill:none;stroke:#3f3d56;stroke-miterlimit:10;stroke-width:2px"/><circle cx="279.8" cy="556.9" r="19.3" style="fill:#814bb8;stroke:#3f3d56;stroke-miterlimit:10;stroke-width:2px"/><rect x="419.8" y="460.4" width="37" height="37" style="fill:#814bb8"/><rect x="427.2" y="453" width="37" height="37" style="fill:none;stroke:#3f3d56;stroke-miterlimit:10;stroke-width:2px"/><circle cx="346.1" cy="453" r="12.1" style="fill:#ffa317;stroke:#3f3d56;stroke-miterlimit:10;stroke-width:2px"/><rect y="474.55" width="30.9" height="30.9" style="fill:#814bb8"/><rect x="6.2" y="468.35" width="30.9" height="30.9" style="fill:none;stroke:#3f3d56;stroke-miterlimit:10;stroke-width:2px"/></svg>