<?xml version="1.0" encoding="utf-8"?>
<!-- Generator: Adobe Illustrator 24.1.3, SVG Export Plug-In . SVG Version: 6.00 Build 0)  -->
<svg version="1.1" id="a5c16198-98a1-478b-8909-43624583dcf2"
	 xmlns="http://www.w3.org/2000/svg" xmlns:xlink="http://www.w3.org/1999/xlink" x="0px" y="0px" viewBox="0 0 793 551.7"
	 style="enable-background:new 0 0 793 551.7;" xml:space="preserve">
<style type="text/css">
	.st0{fill:#2F2E41;}
	.st1{fill:#3F3D56;}
	.st2{fill:#FFFFFF;}
	.st3{fill:#FFA317;}
	.st4{fill:#E6E6E6;}
	.st5{fill:#FFB8B8;}
</style>
<g>
	<path class="st0" d="M90.3,128.5c27.5-11.7,61.7-4.3,95.2,0.9c0.3-6.2,4.1-13.8,0.1-18.2c-4.8-5.3-4.4-10.8-1.5-16.4
		c7.4-14.3-3.2-29.4-13.9-42.1c-4.9-5.8-12.2-8.8-19.8-8.3l-19.8,1.4c-9.9,0.7-18.3,7.5-21.1,16.9l0,0c-4.7,6.4-7.3,12.8-5.7,19.2
		c-7.1,4.8-8.3,10.7-5.1,17.3c2.7,4.1,2.7,8.2-0.1,12.1c-3.7,5-6.5,10.6-8.3,16.5L90.3,128.5z"/>
	<path class="st0" d="M743.8,483.1H183.3c-10.4,0-18.8-8.4-18.8-18.8l0,0l0,0c203.2-23.6,402.5-23.6,598,0l0,0
		C762.5,474.7,754.1,483.1,743.8,483.1L743.8,483.1z"/>
	<path class="st1" d="M762.5,465.4l-598-1.1l69.3-116.6l0.3-0.6v-257c0-13.1,10.6-23.8,23.8-23.8c0,0,0,0,0,0h407.9
		c13.1,0,23.8,10.6,23.8,23.8c0,0,0,0,0,0v258.8L762.5,465.4z"/>
	<path class="st2" d="M257.4,82.9c-4.3,0-7.7,3.5-7.7,7.7V325c0,4.3,3.5,7.7,7.7,7.7h412.3c4.3,0,7.7-3.5,7.7-7.7V90.7
		c0-4.3-3.5-7.7-7.7-7.7L257.4,82.9z"/>
	<path class="st0" d="M259.1,363.7c-1.3,0-2.5,0.8-3,1.9L234.8,412c-0.8,1.7,0,3.6,1.6,4.4c0.4,0.2,0.9,0.3,1.4,0.3h449.1
		c1.8,0,3.3-1.5,3.3-3.3c0-0.5-0.1-1-0.4-1.5l-23.2-46.4c-0.6-1.1-1.7-1.8-3-1.8L259.1,363.7z"/>
	<circle class="st2" cx="461.9" cy="74.1" r="5"/>
	<path class="st0" d="M417.7,425.6c-1.5,0-2.8,1-3.2,2.5l-5.4,19.9c-0.5,1.8,0.6,3.6,2.3,4.1c0.3,0.1,0.6,0.1,0.9,0.1h101.9
		c1.8,0,3.3-1.5,3.3-3.3c0-0.4-0.1-0.7-0.2-1.1l-6.9-19.9c-0.5-1.3-1.7-2.2-3.1-2.2L417.7,425.6z"/>
	<polygon class="st0" points="689.6,343.2 689.6,347.7 233.8,347.7 234.2,347.1 234.2,343.2 	"/>
	<circle class="st3" cx="676.9" cy="83.5" r="77.4"/>
	<path class="st2" d="M708.9,117.2h-64.1c-2.4,0-4.4-2-4.4-4.4V74.1c0-2.4,2-4.4,4.4-4.4h64.1c2.4,0,4.4,2,4.4,4.4v38.7
		C713.4,115.2,711.4,117.2,708.9,117.2z M644.8,74.1v38.7h64.1l0-38.7L644.8,74.1z"/>
	<path class="st2" d="M696.8,74.1H657V56.4c0-12.8,8.4-22.1,19.9-22.1s19.9,9.3,19.9,22.1V74.1z M661.4,69.7h31V56.4
		c0-10.4-6.4-17.7-15.5-17.7s-15.5,7.3-15.5,17.7L661.4,69.7z"/>
	<circle class="st2" cx="676.9" cy="92.3" r="4.4"/>
	<path class="st4" d="M622.9,253.3H304.2c-3.3,0-5.9-2.6-5.9-5.9v-79c0-3.3,2.6-5.9,5.9-5.9h318.6c3.3,0,5.9,2.6,5.9,5.9v79
		C628.8,250.6,626.1,253.3,622.9,253.3z M304.2,164.8c-2,0-3.5,1.6-3.5,3.5v79c0,2,1.6,3.5,3.5,3.5h318.6c2,0,3.5-1.6,3.5-3.5v-79
		c0-2-1.6-3.5-3.5-3.5L304.2,164.8z"/>
	<circle class="st4" cx="353.7" cy="204.8" r="24"/>
	<path class="st4" d="M409.2,188.8c-2.2,0-4,1.8-4,4c0,2.2,1.8,4,4,4c0,0,0,0,0,0h188.9c2.2,0,4-1.8,4-4s-1.8-4-4-4H409.2z"/>
	<path class="st4" d="M409.2,212.8c-2.2,0-4,1.8-4,4s1.8,4,4,4h81.3c2.2,0,4-1.8,4-4s-1.8-4-4-4H409.2z"/>
	<path class="st5" d="M233.1,214.4l-58.9,31.3l-0.7-26.1c19.2-3.2,37.5-8.8,54.4-17.9l6.2-15.2c2.1-5.3,8.2-7.8,13.4-5.7
		c1.6,0.6,3,1.7,4.1,3l0,0c3.4,4.2,3.1,10.3-0.9,14.1L233.1,214.4z"/>
	<path class="st0" d="M89.1,395.2L89.1,395.2c-0.9-3.2-0.3-6.6,1.5-9.4l12.9-19.9c6.3-9.7,19-13.1,29.3-7.7l0,0
		c-5.4,9.3-4.7,17.4,1.9,24.4c-10.2,5-19.6,11.4-27.9,19c-5.3,3.6-12.5,2.2-16.1-3C90,397.7,89.5,396.5,89.1,395.2z"/>
	<path class="st0" d="M235.7,369.3L235.7,369.3c-4,6.6-11.1,10.7-18.9,10.8l-86,0.7l-3.7-21.6l38-11.2l-32.1-24.6l35-41l63.6,59.3
		C239.5,348.8,241.1,360.3,235.7,369.3z"/>
	<path class="st0" d="M117.5,517.2H97.4C79.3,393.3,60.9,269,115.3,222.6l64.1,10.4l-8.2,54.4l-35.8,41L117.5,517.2z"/>
	<path class="st0" d="M135.2,545.2L135.2,545.2c-3.2,0.9-6.6,0.3-9.4-1.5l-21.9-2.9c-9.7-6.3-13.1-19-7.7-29.3l0,0
		c9.3,5.4,17.4,4.7,24.4-1.9c5,10.1,13.2,9.5,21,17.9c3.6,5.3,2.2,12.5-3,16.1C137.6,544.3,136.4,544.9,135.2,545.2z"/>
	<path class="st5" d="M165.2,139.9l-37.3-8.9c6.2-12.7,6.7-26.8,3.7-41.8l25.4-0.7C157.8,107.1,160.2,124.5,165.2,139.9z"/>
	<path class="st3" d="M175.5,255.5c-27.1,18.5-46.3,0.6-60.9-26.9c2-16.9-1.3-37-7.4-59c-5.6-20,5-41.1,24.5-48.4l0,0l32.1,13.4
		c27.2,22.2,32.6,46.2,22.4,71.6L175.5,255.5z"/>
	<path class="st5" d="M97.4,158.5l-29.8,15.7l52.9,31.3l7.4,18.2c2,4.9-0.4,10.6-5.3,12.6c-0.2,0.1-0.3,0.1-0.5,0.2l0,0
		c-5,1.7-10.5-0.9-12.3-6c-0.3-0.8-0.5-1.7-0.5-2.6l-0.7-12.7L41.3,193c-4.6-1.5-8.2-5.1-9.9-9.6l0,0c-2.4-6.7,0-14.3,5.9-18.3
		l54.1-37.1L97.4,158.5z"/>
	<path class="st3" d="M127.2,161.5c-12.4-5.5-23.7,0.5-38,5.2l-2.2-39.5c14.2-7.6,27.7-9.6,40.3-3.7L127.2,161.5z"/>
	<circle class="st5" cx="142.1" cy="84.2" r="23.8"/>
	<path class="st0" d="M170.5,81.2c-23.6,2.3-41.5-1.5-53-12.5v-8.8h51L170.5,81.2z"/>
</g>
</svg>
